<mxfile host="app.diagrams.net" agent="Mozilla/5.0 (Windows NT 10.0; Win64; x64) AppleWebKit/537.36 (KHTML, like Gecko) Chrome/133.0.0.0 Safari/537.36" version="26.0.6">
  <diagram name="Page-1" id="XsuJUf6MxSvVE1CmgRC6">
    <mxGraphModel dx="2200" dy="1666" grid="0" gridSize="10" guides="1" tooltips="1" connect="1" arrows="1" fold="1" page="0" pageScale="1" pageWidth="850" pageHeight="1100" math="0" shadow="0">
      <root>
        <mxCell id="0" />
        <mxCell id="1" parent="0" />
        <mxCell id="fDVG0W3dW3XCmCCDKmlJ-2" value="" style="rounded=1;whiteSpace=wrap;html=1;" vertex="1" parent="1">
          <mxGeometry x="-689" y="-748" width="261" height="249" as="geometry" />
        </mxCell>
        <UserObject label="" tooltip="" id="fDVG0W3dW3XCmCCDKmlJ-5">
          <mxCell style="rounded=1;whiteSpace=wrap;html=1;" vertex="1" parent="1">
            <mxGeometry x="-482" y="-434" width="477" height="376" as="geometry" />
          </mxCell>
        </UserObject>
        <mxCell id="fDVG0W3dW3XCmCCDKmlJ-6" value="" style="rounded=1;whiteSpace=wrap;html=1;" vertex="1" parent="1">
          <mxGeometry x="-833" y="-31" width="285" height="275" as="geometry" />
        </mxCell>
        <mxCell id="fDVG0W3dW3XCmCCDKmlJ-7" value="" style="rounded=1;whiteSpace=wrap;html=1;" vertex="1" parent="1">
          <mxGeometry x="191" y="-750" width="261" height="249" as="geometry" />
        </mxCell>
        <mxCell id="fDVG0W3dW3XCmCCDKmlJ-8" value="Branch Office" style="text;html=1;align=center;verticalAlign=middle;whiteSpace=wrap;rounded=0;fontSize=16;fontStyle=1" vertex="1" parent="1">
          <mxGeometry x="-689" y="-780" width="113" height="30" as="geometry" />
        </mxCell>
        <mxCell id="fDVG0W3dW3XCmCCDKmlJ-9" value="Field Users" style="text;html=1;align=center;verticalAlign=middle;whiteSpace=wrap;rounded=0;fontSize=16;fontStyle=1" vertex="1" parent="1">
          <mxGeometry x="-815" y="-69" width="89" height="30" as="geometry" />
        </mxCell>
        <mxCell id="fDVG0W3dW3XCmCCDKmlJ-10" value="AWS Cloud&amp;nbsp;" style="text;html=1;align=center;verticalAlign=middle;whiteSpace=wrap;rounded=0;fontSize=16;fontStyle=1" vertex="1" parent="1">
          <mxGeometry x="-482" y="-468" width="110" height="30" as="geometry" />
        </mxCell>
        <mxCell id="fDVG0W3dW3XCmCCDKmlJ-11" value="Head Office&amp;nbsp;" style="text;html=1;align=center;verticalAlign=middle;whiteSpace=wrap;rounded=0;fontSize=16;fontStyle=1" vertex="1" parent="1">
          <mxGeometry x="189" y="-786" width="104" height="30" as="geometry" />
        </mxCell>
        <mxCell id="fDVG0W3dW3XCmCCDKmlJ-17" value="" style="edgeStyle=none;curved=1;rounded=0;orthogonalLoop=1;jettySize=auto;html=1;fontSize=12;startSize=8;endSize=8;" edge="1" parent="1" source="fDVG0W3dW3XCmCCDKmlJ-14" target="fDVG0W3dW3XCmCCDKmlJ-15">
          <mxGeometry relative="1" as="geometry" />
        </mxCell>
        <mxCell id="fDVG0W3dW3XCmCCDKmlJ-14" value="" style="sketch=0;outlineConnect=0;fontColor=#232F3E;gradientColor=none;fillColor=#7AA116;strokeColor=none;dashed=0;verticalLabelPosition=bottom;verticalAlign=top;align=center;html=1;fontSize=12;fontStyle=0;aspect=fixed;pointerEvents=1;shape=mxgraph.aws4.file_system;" vertex="1" parent="1">
          <mxGeometry x="-609" y="-728" width="78" height="73" as="geometry" />
        </mxCell>
        <mxCell id="fDVG0W3dW3XCmCCDKmlJ-15" value="" style="sketch=0;points=[[0,0,0],[0.25,0,0],[0.5,0,0],[0.75,0,0],[1,0,0],[0,1,0],[0.25,1,0],[0.5,1,0],[0.75,1,0],[1,1,0],[0,0.25,0],[0,0.5,0],[0,0.75,0],[1,0.25,0],[1,0.5,0],[1,0.75,0]];outlineConnect=0;fontColor=#232F3E;fillColor=#01A88D;strokeColor=#ffffff;dashed=0;verticalLabelPosition=bottom;verticalAlign=top;align=center;html=1;fontSize=12;fontStyle=0;aspect=fixed;shape=mxgraph.aws4.resourceIcon;resIcon=mxgraph.aws4.datasync;" vertex="1" parent="1">
          <mxGeometry x="-609" y="-609" width="78" height="78" as="geometry" />
        </mxCell>
        <mxCell id="fDVG0W3dW3XCmCCDKmlJ-21" value="" style="edgeStyle=none;curved=1;rounded=0;orthogonalLoop=1;jettySize=auto;html=1;fontSize=12;startSize=8;endSize=8;" edge="1" parent="1" source="fDVG0W3dW3XCmCCDKmlJ-18" target="fDVG0W3dW3XCmCCDKmlJ-22">
          <mxGeometry relative="1" as="geometry">
            <mxPoint x="-564.2544802867384" y="-279" as="targetPoint" />
          </mxGeometry>
        </mxCell>
        <mxCell id="fDVG0W3dW3XCmCCDKmlJ-18" value="" style="sketch=0;outlineConnect=0;fontColor=#232F3E;gradientColor=none;fillColor=#7AA116;strokeColor=none;dashed=0;verticalLabelPosition=bottom;verticalAlign=top;align=center;html=1;fontSize=12;fontStyle=0;aspect=fixed;pointerEvents=1;shape=mxgraph.aws4.file_system;" vertex="1" parent="1">
          <mxGeometry x="-732.5" y="-28.5" width="90.29" height="84.5" as="geometry" />
        </mxCell>
        <mxCell id="fDVG0W3dW3XCmCCDKmlJ-22" value="" style="sketch=0;outlineConnect=0;fontColor=#232F3E;gradientColor=none;fillColor=#7AA116;strokeColor=none;dashed=0;verticalLabelPosition=bottom;verticalAlign=top;align=center;html=1;fontSize=12;fontStyle=0;aspect=fixed;pointerEvents=1;shape=mxgraph.aws4.s3_file_gateway;" vertex="1" parent="1">
          <mxGeometry x="-752" y="112" width="122" height="122" as="geometry" />
        </mxCell>
        <mxCell id="fDVG0W3dW3XCmCCDKmlJ-23" value="Amazon S3" style="sketch=0;outlineConnect=0;fontColor=#232F3E;gradientColor=none;strokeColor=#ffffff;fillColor=#232F3E;dashed=0;verticalLabelPosition=middle;verticalAlign=bottom;align=center;html=1;whiteSpace=wrap;fontSize=10;fontStyle=1;spacing=3;shape=mxgraph.aws4.productIcon;prIcon=mxgraph.aws4.s3;" vertex="1" parent="1">
          <mxGeometry x="-283.5" y="-299" width="80" height="99" as="geometry" />
        </mxCell>
        <mxCell id="fDVG0W3dW3XCmCCDKmlJ-26" value="" style="edgeStyle=none;curved=1;rounded=0;orthogonalLoop=1;jettySize=auto;html=1;fontSize=12;startSize=8;endSize=8;" edge="1" parent="1" source="fDVG0W3dW3XCmCCDKmlJ-24" target="fDVG0W3dW3XCmCCDKmlJ-23">
          <mxGeometry relative="1" as="geometry" />
        </mxCell>
        <mxCell id="fDVG0W3dW3XCmCCDKmlJ-24" value="" style="sketch=0;points=[[0,0,0],[0.25,0,0],[0.5,0,0],[0.75,0,0],[1,0,0],[0,1,0],[0.25,1,0],[0.5,1,0],[0.75,1,0],[1,1,0],[0,0.25,0],[0,0.5,0],[0,0.75,0],[1,0.25,0],[1,0.5,0],[1,0.75,0]];outlineConnect=0;fontColor=#232F3E;fillColor=#01A88D;strokeColor=#ffffff;dashed=0;verticalLabelPosition=bottom;verticalAlign=top;align=center;html=1;fontSize=12;fontStyle=0;aspect=fixed;shape=mxgraph.aws4.resourceIcon;resIcon=mxgraph.aws4.datasync;" vertex="1" parent="1">
          <mxGeometry x="-467" y="-188" width="110" height="110" as="geometry" />
        </mxCell>
        <mxCell id="FKR_xdIM5WoSHd__ZxHh-1" value="" style="edgeStyle=none;curved=1;rounded=0;orthogonalLoop=1;jettySize=auto;html=1;fontSize=12;startSize=8;endSize=8;" edge="1" parent="1" source="fDVG0W3dW3XCmCCDKmlJ-25" target="fDVG0W3dW3XCmCCDKmlJ-23">
          <mxGeometry relative="1" as="geometry" />
        </mxCell>
        <mxCell id="fDVG0W3dW3XCmCCDKmlJ-25" value="" style="sketch=0;outlineConnect=0;fontColor=#232F3E;gradientColor=none;fillColor=#7AA116;strokeColor=none;dashed=0;verticalLabelPosition=bottom;verticalAlign=top;align=center;html=1;fontSize=12;fontStyle=0;aspect=fixed;pointerEvents=1;shape=mxgraph.aws4.s3_file_gateway;" vertex="1" parent="1">
          <mxGeometry x="-125" y="-192" width="101" height="101" as="geometry" />
        </mxCell>
        <mxCell id="fDVG0W3dW3XCmCCDKmlJ-29" value="" style="sketch=0;html=1;aspect=fixed;strokeColor=none;shadow=0;fillColor=#3B8DF1;verticalAlign=top;labelPosition=center;verticalLabelPosition=bottom;shape=mxgraph.gcp2.speed" vertex="1" parent="1">
          <mxGeometry x="-192.68" y="-410" width="47.37" height="27" as="geometry" />
        </mxCell>
        <mxCell id="fDVG0W3dW3XCmCCDKmlJ-31" value="" style="outlineConnect=0;dashed=0;verticalLabelPosition=bottom;verticalAlign=top;align=center;html=1;shape=mxgraph.aws3.reported_state;fillColor=#5294CF;gradientColor=none;" vertex="1" parent="1">
          <mxGeometry x="267" y="-674" width="123" height="116" as="geometry" />
        </mxCell>
        <mxCell id="fDVG0W3dW3XCmCCDKmlJ-38" value="&#xa;Local Storage&#xa;&#xa;" style="text;html=1;align=center;verticalAlign=middle;whiteSpace=wrap;rounded=0;" vertex="1" parent="1">
          <mxGeometry x="-600" y="-679" width="60" height="30" as="geometry" />
        </mxCell>
        <mxCell id="fDVG0W3dW3XCmCCDKmlJ-40" value="&#xa;AWS DataSync&#xa;&#xa;" style="text;html=1;align=center;verticalAlign=middle;whiteSpace=wrap;rounded=0;" vertex="1" parent="1">
          <mxGeometry x="-603" y="-524" width="60" height="30" as="geometry" />
        </mxCell>
        <mxCell id="fDVG0W3dW3XCmCCDKmlJ-41" value="&#xa;Local Storage&#xa;&#xa;" style="text;html=1;align=center;verticalAlign=middle;whiteSpace=wrap;rounded=0;" vertex="1" parent="1">
          <mxGeometry x="-717.36" y="30" width="60" height="30" as="geometry" />
        </mxCell>
        <mxCell id="fDVG0W3dW3XCmCCDKmlJ-42" value="&#xa; &lt;strong data-end=&quot;638&quot; data-start=&quot;590&quot;&gt;S3 File Gateway&lt;/strong&gt;&#xa;&#xa;" style="text;html=1;align=center;verticalAlign=middle;whiteSpace=wrap;rounded=0;" vertex="1" parent="1">
          <mxGeometry x="-744" y="140" width="60" height="30" as="geometry" />
        </mxCell>
        <mxCell id="fDVG0W3dW3XCmCCDKmlJ-43" value="&#xa;AWS DataSync&#xa;&#xa;" style="text;html=1;align=center;verticalAlign=middle;whiteSpace=wrap;rounded=0;" vertex="1" parent="1">
          <mxGeometry x="-442" y="-148" width="60" height="30" as="geometry" />
        </mxCell>
        <mxCell id="fDVG0W3dW3XCmCCDKmlJ-44" value="&#xa; &lt;strong data-end=&quot;638&quot; data-start=&quot;590&quot;&gt;S3 File Gateway&lt;/strong&gt;&#xa;&#xa;" style="text;html=1;align=center;verticalAlign=middle;whiteSpace=wrap;rounded=0;" vertex="1" parent="1">
          <mxGeometry x="-107" y="-121" width="60" height="30" as="geometry" />
        </mxCell>
        <mxCell id="fDVG0W3dW3XCmCCDKmlJ-36" value="&#xa;Incremental sync via AWS DataSync&#xa;&#xa;" style="text;html=1;align=center;verticalAlign=middle;whiteSpace=wrap;rounded=0;fontStyle=1" vertex="1" parent="1">
          <mxGeometry x="-320" y="-585" width="138" height="37" as="geometry" />
        </mxCell>
        <mxCell id="fDVG0W3dW3XCmCCDKmlJ-48" value="Updated Files&lt;br&gt;Reporting&amp;nbsp;" style="text;html=1;align=center;verticalAlign=middle;whiteSpace=wrap;rounded=0;" vertex="1" parent="1">
          <mxGeometry x="276.25" y="-728" width="90.5" height="51" as="geometry" />
        </mxCell>
        <mxCell id="fDVG0W3dW3XCmCCDKmlJ-49" style="edgeStyle=none;curved=1;rounded=0;orthogonalLoop=1;jettySize=auto;html=1;exitX=0.75;exitY=0;exitDx=0;exitDy=0;fontSize=12;startSize=8;endSize=8;" edge="1" parent="1" source="fDVG0W3dW3XCmCCDKmlJ-44" target="fDVG0W3dW3XCmCCDKmlJ-44">
          <mxGeometry relative="1" as="geometry" />
        </mxCell>
        <mxCell id="fDVG0W3dW3XCmCCDKmlJ-59" value="" style="shape=flexArrow;endArrow=classic;html=1;rounded=0;fontSize=12;startSize=8;endSize=8;curved=1;entryX=0;entryY=0.5;entryDx=0;entryDy=0;fillColor=#ffe6cc;strokeColor=#d79b00;exitX=0.349;exitY=0.996;exitDx=0;exitDy=0;exitPerimeter=0;" edge="1" parent="1" source="fDVG0W3dW3XCmCCDKmlJ-2">
          <mxGeometry width="50" height="50" relative="1" as="geometry">
            <mxPoint x="-594" y="-521" as="sourcePoint" />
            <mxPoint x="-482" y="-340" as="targetPoint" />
            <Array as="points">
              <mxPoint x="-597" y="-337" />
            </Array>
          </mxGeometry>
        </mxCell>
        <mxCell id="fDVG0W3dW3XCmCCDKmlJ-60" value="" style="shape=flexArrow;endArrow=classic;html=1;rounded=0;fontSize=12;startSize=8;endSize=8;curved=1;fillColor=#ffe6cc;strokeColor=#d79b00;entryX=0.222;entryY=1.004;entryDx=0;entryDy=0;entryPerimeter=0;" edge="1" parent="1" target="fDVG0W3dW3XCmCCDKmlJ-5">
          <mxGeometry width="50" height="50" relative="1" as="geometry">
            <mxPoint x="-545" y="115" as="sourcePoint" />
            <mxPoint x="-442" y="-58" as="targetPoint" />
            <Array as="points">
              <mxPoint x="-376" y="115" />
            </Array>
          </mxGeometry>
        </mxCell>
        <mxCell id="fDVG0W3dW3XCmCCDKmlJ-65" value="&#xa;Sync when online, cache when offline&#xa;&#xa;" style="text;html=1;align=center;verticalAlign=middle;whiteSpace=wrap;rounded=0;fontStyle=1" vertex="1" parent="1">
          <mxGeometry x="-335" y="146" width="128" height="30" as="geometry" />
        </mxCell>
        <mxCell id="fDVG0W3dW3XCmCCDKmlJ-69" value="" style="shape=flexArrow;endArrow=classic;html=1;rounded=0;fontSize=12;startSize=8;endSize=8;curved=1;fillColor=#ffe6cc;strokeColor=#d79b00;exitX=1.002;exitY=0.298;exitDx=0;exitDy=0;exitPerimeter=0;" edge="1" parent="1">
          <mxGeometry width="50" height="50" relative="1" as="geometry">
            <mxPoint x="-4.995999999999822" y="-343.952" as="sourcePoint" />
            <mxPoint x="267.05" y="-499" as="targetPoint" />
            <Array as="points">
              <mxPoint x="270.05" y="-346" />
            </Array>
          </mxGeometry>
        </mxCell>
        <mxCell id="fDVG0W3dW3XCmCCDKmlJ-70" value="&lt;br&gt;Head Office pulls uptodate data&amp;nbsp; from&lt;div&gt;S3&lt;br&gt;&lt;br&gt;&lt;/div&gt;" style="text;html=1;align=center;verticalAlign=middle;whiteSpace=wrap;rounded=0;fontStyle=1" vertex="1" parent="1">
          <mxGeometry x="267" y="-299" width="89" height="47" as="geometry" />
        </mxCell>
        <mxCell id="FKR_xdIM5WoSHd__ZxHh-28" style="edgeStyle=none;curved=1;rounded=0;orthogonalLoop=1;jettySize=auto;html=1;fontSize=12;startSize=8;endSize=8;" edge="1" parent="1" source="fDVG0W3dW3XCmCCDKmlJ-75" target="fDVG0W3dW3XCmCCDKmlJ-23">
          <mxGeometry relative="1" as="geometry" />
        </mxCell>
        <mxCell id="fDVG0W3dW3XCmCCDKmlJ-75" value="Amazon Cloudfront" style="sketch=0;outlineConnect=0;fontColor=#232F3E;gradientColor=none;strokeColor=#ffffff;fillColor=#232F3E;dashed=0;verticalLabelPosition=middle;verticalAlign=bottom;align=center;html=1;whiteSpace=wrap;fontSize=10;fontStyle=1;spacing=3;shape=mxgraph.aws4.productIcon;prIcon=mxgraph.aws4.cloudfront;" vertex="1" parent="1">
          <mxGeometry x="-103.63" y="-410" width="60" height="86" as="geometry" />
        </mxCell>
        <mxCell id="fDVG0W3dW3XCmCCDKmlJ-77" style="edgeStyle=none;curved=1;rounded=0;orthogonalLoop=1;jettySize=auto;html=1;exitX=0.75;exitY=0;exitDx=0;exitDy=0;fontSize=12;startSize=8;endSize=8;" edge="1" parent="1" source="fDVG0W3dW3XCmCCDKmlJ-42" target="fDVG0W3dW3XCmCCDKmlJ-42">
          <mxGeometry relative="1" as="geometry" />
        </mxCell>
        <mxCell id="fDVG0W3dW3XCmCCDKmlJ-93" value="" style="edgeStyle=orthogonalEdgeStyle;html=1;endArrow=open;elbow=vertical;startArrow=none;endFill=0;strokeColor=#545B64;rounded=0;fontSize=12;startSize=8;endSize=8;curved=1;" edge="1" parent="1">
          <mxGeometry width="100" relative="1" as="geometry">
            <mxPoint x="-628" y="185" as="sourcePoint" />
            <mxPoint x="-232.14" y="-195" as="targetPoint" />
            <Array as="points">
              <mxPoint x="-332.14" y="188" />
              <mxPoint x="-332.14" y="126" />
              <mxPoint x="-232.14" y="126" />
            </Array>
          </mxGeometry>
        </mxCell>
        <mxCell id="fDVG0W3dW3XCmCCDKmlJ-94" value="" style="edgeStyle=orthogonalEdgeStyle;html=1;endArrow=open;elbow=vertical;startArrow=none;endFill=0;strokeColor=#545B64;rounded=0;fontSize=12;startSize=8;endSize=8;curved=1;" edge="1" parent="1" source="fDVG0W3dW3XCmCCDKmlJ-23">
          <mxGeometry width="100" relative="1" as="geometry">
            <mxPoint x="-49.94999999999999" y="-313" as="sourcePoint" />
            <mxPoint x="345.55" y="-557" as="targetPoint" />
            <Array as="points">
              <mxPoint x="246" y="-263" />
              <mxPoint x="246" y="-316" />
              <mxPoint x="346" y="-316" />
            </Array>
          </mxGeometry>
        </mxCell>
        <mxCell id="fDVG0W3dW3XCmCCDKmlJ-100" value="" style="edgeStyle=orthogonalEdgeStyle;html=1;endArrow=open;elbow=vertical;startArrow=none;endFill=0;strokeColor=#545B64;rounded=0;fontSize=12;startSize=8;endSize=8;curved=1;entryX=0.507;entryY=0.327;entryDx=0;entryDy=0;entryPerimeter=0;" edge="1" parent="1" target="fDVG0W3dW3XCmCCDKmlJ-5">
          <mxGeometry width="100" relative="1" as="geometry">
            <mxPoint x="-529" y="-565" as="sourcePoint" />
            <mxPoint x="-193" y="-439" as="targetPoint" />
            <Array as="points">
              <mxPoint x="-529" y="-569" />
              <mxPoint x="-304" y="-569" />
              <mxPoint x="-304" y="-554" />
              <mxPoint x="-240" y="-554" />
            </Array>
          </mxGeometry>
        </mxCell>
        <mxCell id="FKR_xdIM5WoSHd__ZxHh-23" value="" style="edgeStyle=none;curved=1;rounded=0;orthogonalLoop=1;jettySize=auto;html=1;fontSize=12;startSize=8;endSize=8;" edge="1" parent="1" source="FKR_xdIM5WoSHd__ZxHh-4" target="fDVG0W3dW3XCmCCDKmlJ-23">
          <mxGeometry relative="1" as="geometry" />
        </mxCell>
        <mxCell id="FKR_xdIM5WoSHd__ZxHh-24" value="" style="edgeStyle=none;curved=1;rounded=0;orthogonalLoop=1;jettySize=auto;html=1;fontSize=12;startSize=8;endSize=8;" edge="1" parent="1" source="FKR_xdIM5WoSHd__ZxHh-4" target="fDVG0W3dW3XCmCCDKmlJ-23">
          <mxGeometry relative="1" as="geometry" />
        </mxCell>
        <mxCell id="FKR_xdIM5WoSHd__ZxHh-4" value="&#xa;S3 Transfer Acceleration&#xa;&#xa;" style="text;html=1;align=center;verticalAlign=middle;whiteSpace=wrap;rounded=0;fontSize=16;" vertex="1" parent="1">
          <mxGeometry x="-188" y="-359" width="48" height="30" as="geometry" />
        </mxCell>
        <mxCell id="FKR_xdIM5WoSHd__ZxHh-31" value="1" style="ellipse;whiteSpace=wrap;html=1;aspect=fixed;rotation=0;gradientColor=#C35500;strokeColor=none;gradientDirection=east;fillColor=#FFB300;rounded=0;pointerEvents=0;fontFamily=Helvetica;fontSize=16;fontColor=#FFFFFF;spacingTop=4;spacingBottom=4;spacingLeft=4;spacingRight=4;points=[];fontStyle=1" vertex="1" parent="1">
          <mxGeometry x="-570" y="-783" width="30" height="30" as="geometry" />
        </mxCell>
        <mxCell id="FKR_xdIM5WoSHd__ZxHh-32" value="3" style="ellipse;whiteSpace=wrap;html=1;aspect=fixed;rotation=0;gradientColor=#C35500;strokeColor=none;gradientDirection=east;fillColor=#FFB300;rounded=0;pointerEvents=0;fontFamily=Helvetica;fontSize=16;fontColor=#FFFFFF;spacingTop=4;spacingBottom=4;spacingLeft=4;spacingRight=4;points=[];fontStyle=1" vertex="1" parent="1">
          <mxGeometry x="-378" y="-471" width="30" height="30" as="geometry" />
        </mxCell>
        <mxCell id="FKR_xdIM5WoSHd__ZxHh-33" value="4" style="ellipse;whiteSpace=wrap;html=1;aspect=fixed;rotation=0;gradientColor=#C35500;strokeColor=none;gradientDirection=east;fillColor=#FFB300;rounded=0;pointerEvents=0;fontFamily=Helvetica;fontSize=16;fontColor=#FFFFFF;spacingTop=4;spacingBottom=4;spacingLeft=4;spacingRight=4;points=[];fontStyle=1" vertex="1" parent="1">
          <mxGeometry x="290" y="-789" width="30" height="30" as="geometry" />
        </mxCell>
        <mxCell id="FKR_xdIM5WoSHd__ZxHh-34" value="2" style="ellipse;whiteSpace=wrap;html=1;aspect=fixed;rotation=0;gradientColor=#C35500;strokeColor=none;gradientDirection=east;fillColor=#FFB300;rounded=0;pointerEvents=0;fontFamily=Helvetica;fontSize=16;fontColor=#FFFFFF;spacingTop=4;spacingBottom=4;spacingLeft=4;spacingRight=4;points=[];fontStyle=1" vertex="1" parent="1">
          <mxGeometry x="-717.36" y="-69" width="30" height="30" as="geometry" />
        </mxCell>
        <mxCell id="FKR_xdIM5WoSHd__ZxHh-35" value="&lt;br&gt;Performance Boosters&lt;div&gt;&lt;br&gt;&lt;/div&gt;" style="text;html=1;align=center;verticalAlign=middle;whiteSpace=wrap;rounded=0;fontSize=16;fontStyle=1" vertex="1" parent="1">
          <mxGeometry x="-216" y="-434" width="192" height="30" as="geometry" />
        </mxCell>
        <mxCell id="FKR_xdIM5WoSHd__ZxHh-37" style="edgeStyle=none;curved=1;rounded=0;orthogonalLoop=1;jettySize=auto;html=1;exitX=1;exitY=0.25;exitDx=0;exitDy=0;entryX=1;entryY=0.5;entryDx=0;entryDy=0;fontSize=12;startSize=8;endSize=8;" edge="1" parent="1" source="FKR_xdIM5WoSHd__ZxHh-4" target="FKR_xdIM5WoSHd__ZxHh-4">
          <mxGeometry relative="1" as="geometry" />
        </mxCell>
      </root>
    </mxGraphModel>
  </diagram>
</mxfile>
